<svg width="60" height="60" viewBox="0 0 60 60" fill="none" xmlns="http://www.w3.org/2000/svg">
<rect width="60" height="60" rx="15" fill="#EAE5FF"/>
<path d="M39.2578 16.6438H35.9575C35.0866 15.638 33.8032 15 32.373 15H27.627C26.1968 15 24.9134 15.638 24.0425 16.6438H20.7422C19.2883 16.6438 18.1055 17.829 18.1055 19.2857V42.3581C18.1055 43.8148 19.2883 45 20.7422 45H39.2578C40.7117 45 41.8945 43.8148 41.8945 42.3581V19.2857C41.8945 17.829 40.7117 16.6438 39.2578 16.6438ZM27.627 16.7613H32.373C33.7311 16.7613 34.8589 17.6704 35.2295 18.8747H24.7705C25.1405 17.6725 26.2668 16.7613 27.627 16.7613ZM40.1367 42.3581C40.1367 42.8437 39.7424 43.2387 39.2578 43.2387H20.7422C20.2576 43.2387 19.8633 42.8437 19.8633 42.3581V19.2857C19.8633 18.8002 20.2576 18.4051 20.7422 18.4051H23.0769C22.9501 18.8334 22.8809 19.2864 22.8809 19.7554C22.8809 20.2417 23.2744 20.636 23.7598 20.636H36.2402C36.7256 20.636 37.1191 20.2417 37.1191 19.7554C37.1191 19.2864 37.0499 18.8334 36.9231 18.4051H39.2578C39.7424 18.4051 40.1367 18.8002 40.1367 19.2857V42.3581Z" fill="#6C4BFF"/>
<path d="M25.6676 32.4982L24.375 33.7932L24.059 33.4766C23.7158 33.1327 23.1593 33.1327 22.816 33.4766C22.4728 33.8205 22.4728 34.3781 22.816 34.722L23.7535 35.6613C24.0967 36.0052 24.6532 36.0052 24.9965 35.6613L26.9105 33.7435C27.2537 33.3996 27.2537 32.842 26.9105 32.4981C26.5673 32.1543 26.0108 32.1543 25.6676 32.4982Z" fill="#6C4BFF"/>
<path d="M36.5039 33.1992H29.4141C28.9287 33.1992 28.5352 33.5935 28.5352 34.0798C28.5352 34.5662 28.9287 34.9604 29.4141 34.9604H36.5039C36.9893 34.9604 37.3828 34.5662 37.3828 34.0798C37.3828 33.5935 36.9893 33.1992 36.5039 33.1992Z" fill="#6C4BFF"/>
<path d="M25.6676 37.548L24.375 38.843L24.059 38.5264C23.7158 38.1825 23.1593 38.1825 22.816 38.5264C22.4728 38.8703 22.4728 39.4279 22.816 39.7718L23.7535 40.7111C24.0967 41.055 24.6532 41.055 24.9965 40.7111L26.9105 38.7933C27.2537 38.4494 27.2537 37.8918 26.9105 37.5479C26.5673 37.2041 26.0108 37.2041 25.6676 37.548Z" fill="#6C4BFF"/>
<path d="M36.5039 38.248H29.4141C28.9287 38.248 28.5352 38.6423 28.5352 39.1287C28.5352 39.615 28.9287 40.0093 29.4141 40.0093H36.5039C36.9893 40.0093 37.3828 39.615 37.3828 39.1287C37.3828 38.6423 36.9893 38.248 36.5039 38.248Z" fill="#6C4BFF"/>
<path d="M31.6762 29.1258L34.3946 26.4021V26.5071C34.3946 26.9934 34.7881 27.3877 35.2735 27.3877C35.7589 27.3877 36.1524 26.9934 36.1524 26.5071C36.1524 24.0161 36.1565 24.248 36.1423 24.1496C36.0801 23.7188 35.7115 23.3954 35.2732 23.3955H33.0469C32.5615 23.3955 32.168 23.7898 32.168 24.2761C32.168 24.7624 32.5615 25.1567 33.0469 25.1567H33.1516L31.0547 27.2577L28.3949 24.5928C28.0517 24.2488 27.4952 24.2488 27.152 24.5928L23.9879 27.763C23.6447 28.1069 23.6447 28.6645 23.9879 29.0084C24.3311 29.3523 24.8876 29.3523 25.2308 29.0084L27.7735 26.4608L30.4333 29.1258C30.7764 29.4697 31.333 29.4697 31.6762 29.1258Z" fill="#6C4BFF"/>
</svg>
