<svg width="60" height="60" viewBox="0 0 60 60" fill="none" xmlns="http://www.w3.org/2000/svg">
<rect width="60" height="60" rx="15" fill="#EAE5FF"/>
<g clip-path="url(#clip0_984_397)">
<path fill-rule="evenodd" clip-rule="evenodd" d="M34.3891 37.9487L36.1566 39.7162C36.4006 39.9601 36.7965 39.9601 37.0404 39.7162L40.5754 36.1812C40.8193 35.9373 40.8193 35.5414 40.5754 35.2975C40.3315 35.0535 39.9356 35.0535 39.6916 35.2975L36.5985 38.3906L35.2729 37.065C35.029 36.821 34.6331 36.821 34.3891 37.065C34.1452 37.3089 34.1452 37.7048 34.3891 37.9487Z" fill="#6C4BFF"/>
<path fill-rule="evenodd" clip-rule="evenodd" d="M23.125 27C23.125 26.6356 22.98 26.2856 22.7225 26.0275C22.4644 25.77 22.1144 25.625 21.75 25.625H20.75C20.3856 25.625 20.0356 25.77 19.7775 26.0275C19.52 26.2856 19.375 26.6356 19.375 27V28C19.375 28.3644 19.52 28.7144 19.7775 28.9725C20.0356 29.23 20.3856 29.375 20.75 29.375H21.75C22.1144 29.375 22.4644 29.23 22.7225 28.9725C22.98 28.7144 23.125 28.3644 23.125 28V27ZM21.875 27V28C21.875 28.0331 21.8619 28.065 21.8381 28.0881C21.815 28.1119 21.7831 28.125 21.75 28.125H20.75C20.7169 28.125 20.685 28.1119 20.6619 28.0881C20.6381 28.065 20.625 28.0331 20.625 28V27C20.625 26.9669 20.6381 26.935 20.6619 26.9119C20.685 26.8881 20.7169 26.875 20.75 26.875H21.75C21.7831 26.875 21.815 26.8881 21.8381 26.9119C21.8619 26.935 21.875 26.9669 21.875 27Z" fill="#6C4BFF"/>
<path fill-rule="evenodd" clip-rule="evenodd" d="M23.125 32C23.125 31.6356 22.98 31.2856 22.7225 31.0275C22.4644 30.77 22.1144 30.625 21.75 30.625H20.75C20.3856 30.625 20.0356 30.77 19.7775 31.0275C19.52 31.2856 19.375 31.6356 19.375 32V33C19.375 33.3644 19.52 33.7144 19.7775 33.9725C20.0356 34.23 20.3856 34.375 20.75 34.375H21.75C22.1144 34.375 22.4644 34.23 22.7225 33.9725C22.98 33.7144 23.125 33.3644 23.125 33V32ZM21.875 32V33C21.875 33.0331 21.8619 33.065 21.8381 33.0881C21.815 33.1119 21.7831 33.125 21.75 33.125H20.75C20.7169 33.125 20.685 33.1119 20.6619 33.0881C20.6381 33.065 20.625 33.0331 20.625 33V32C20.625 31.9669 20.6381 31.935 20.6619 31.9119C20.685 31.8881 20.7169 31.875 20.75 31.875H21.75C21.7831 31.875 21.815 31.8881 21.8381 31.9119C21.8619 31.935 21.875 31.9669 21.875 32Z" fill="#6C4BFF"/>
<path fill-rule="evenodd" clip-rule="evenodd" d="M23.125 37C23.125 36.6356 22.98 36.2856 22.7225 36.0275C22.4644 35.77 22.1144 35.625 21.75 35.625H20.75C20.3856 35.625 20.0356 35.77 19.7775 36.0275C19.52 36.2856 19.375 36.6356 19.375 37V38C19.375 38.3644 19.52 38.7144 19.7775 38.9725C20.0356 39.23 20.3856 39.375 20.75 39.375H21.75C22.1144 39.375 22.4644 39.23 22.7225 38.9725C22.98 38.7144 23.125 38.3644 23.125 38V37ZM21.875 37V38C21.875 38.0331 21.8619 38.065 21.8381 38.0881C21.815 38.1119 21.7831 38.125 21.75 38.125H20.75C20.7169 38.125 20.685 38.1119 20.6619 38.0881C20.6381 38.065 20.625 38.0331 20.625 38V37C20.625 36.9669 20.6381 36.935 20.6619 36.9119C20.685 36.8881 20.7169 36.875 20.75 36.875H21.75C21.7831 36.875 21.815 36.8881 21.8381 36.9119C21.8619 36.935 21.875 36.9669 21.875 37Z" fill="#6C4BFF"/>
<path fill-rule="evenodd" clip-rule="evenodd" d="M28.125 27C28.125 26.6356 27.98 26.2856 27.7225 26.0275C27.4644 25.77 27.1144 25.625 26.75 25.625H25.75C25.3856 25.625 25.0356 25.77 24.7775 26.0275C24.52 26.2856 24.375 26.6356 24.375 27V28C24.375 28.3644 24.52 28.7144 24.7775 28.9725C25.0356 29.23 25.3856 29.375 25.75 29.375H26.75C27.1144 29.375 27.4644 29.23 27.7225 28.9725C27.98 28.7144 28.125 28.3644 28.125 28V27ZM26.875 27V28C26.875 28.0331 26.8619 28.065 26.8381 28.0881C26.815 28.1119 26.7831 28.125 26.75 28.125H25.75C25.7169 28.125 25.685 28.1119 25.6619 28.0881C25.6381 28.065 25.625 28.0331 25.625 28V27C25.625 26.9669 25.6381 26.935 25.6619 26.9119C25.685 26.8881 25.7169 26.875 25.75 26.875H26.75C26.7831 26.875 26.815 26.8881 26.8381 26.9119C26.8619 26.935 26.875 26.9669 26.875 27Z" fill="#6C4BFF"/>
<path fill-rule="evenodd" clip-rule="evenodd" d="M28.125 32C28.125 31.6356 27.98 31.2856 27.7225 31.0275C27.4644 30.77 27.1144 30.625 26.75 30.625H25.75C25.3856 30.625 25.0356 30.77 24.7775 31.0275C24.52 31.2856 24.375 31.6356 24.375 32V33C24.375 33.3644 24.52 33.7144 24.7775 33.9725C25.0356 34.23 25.3856 34.375 25.75 34.375H26.75C27.1144 34.375 27.4644 34.23 27.7225 33.9725C27.98 33.7144 28.125 33.3644 28.125 33V32ZM26.875 32V33C26.875 33.0331 26.8619 33.065 26.8381 33.0881C26.815 33.1119 26.7831 33.125 26.75 33.125H25.75C25.7169 33.125 25.685 33.1119 25.6619 33.0881C25.6381 33.065 25.625 33.0331 25.625 33V32C25.625 31.9669 25.6381 31.935 25.6619 31.9119C25.685 31.8881 25.7169 31.875 25.75 31.875H26.75C26.7831 31.875 26.815 31.8881 26.8381 31.9119C26.8619 31.935 26.875 31.9669 26.875 32Z" fill="#6C4BFF"/>
<path fill-rule="evenodd" clip-rule="evenodd" d="M28.125 37C28.125 36.6356 27.98 36.2856 27.7225 36.0275C27.4644 35.77 27.1144 35.625 26.75 35.625H25.75C25.3856 35.625 25.0356 35.77 24.7775 36.0275C24.52 36.2856 24.375 36.6356 24.375 37V38C24.375 38.3644 24.52 38.7144 24.7775 38.9725C25.0356 39.23 25.3856 39.375 25.75 39.375H26.75C27.1144 39.375 27.4644 39.23 27.7225 38.9725C27.98 38.7144 28.125 38.3644 28.125 38V37ZM26.875 37V38C26.875 38.0331 26.8619 38.065 26.8381 38.0881C26.815 38.1119 26.7831 38.125 26.75 38.125H25.75C25.7169 38.125 25.685 38.1119 25.6619 38.0881C25.6381 38.065 25.625 38.0331 25.625 38V37C25.625 36.9669 25.6381 36.935 25.6619 36.9119C25.685 36.8881 25.7169 36.875 25.75 36.875H26.75C26.7831 36.875 26.815 36.8881 26.8381 36.9119C26.8619 36.935 26.875 36.9669 26.875 37Z" fill="#6C4BFF"/>
<path fill-rule="evenodd" clip-rule="evenodd" d="M33.125 27C33.125 26.6356 32.98 26.2856 32.7225 26.0275C32.4644 25.77 32.1144 25.625 31.75 25.625H30.75C30.3856 25.625 30.0356 25.77 29.7775 26.0275C29.52 26.2856 29.375 26.6356 29.375 27V28C29.375 28.3644 29.52 28.7144 29.7775 28.9725C30.0356 29.23 30.3856 29.375 30.75 29.375H31.75C32.1144 29.375 32.4644 29.23 32.7225 28.9725C32.98 28.7144 33.125 28.3644 33.125 28V27ZM31.875 27V28C31.875 28.0331 31.8619 28.065 31.8381 28.0881C31.815 28.1119 31.7831 28.125 31.75 28.125H30.75C30.7169 28.125 30.685 28.1119 30.6619 28.0881C30.6381 28.065 30.625 28.0331 30.625 28V27C30.625 26.9669 30.6381 26.935 30.6619 26.9119C30.685 26.8881 30.7169 26.875 30.75 26.875H31.75C31.7831 26.875 31.815 26.8881 31.8381 26.9119C31.8619 26.935 31.875 26.9669 31.875 27Z" fill="#6C4BFF"/>
<path fill-rule="evenodd" clip-rule="evenodd" d="M38.125 27C38.125 26.6356 37.98 26.2856 37.7225 26.0275C37.4644 25.77 37.1144 25.625 36.75 25.625H35.75C35.3856 25.625 35.0356 25.77 34.7775 26.0275C34.52 26.2856 34.375 26.6356 34.375 27V28C34.375 28.3644 34.52 28.7144 34.7775 28.9725C35.0356 29.23 35.3856 29.375 35.75 29.375H36.75C37.1144 29.375 37.4644 29.23 37.7225 28.9725C37.98 28.7144 38.125 28.3644 38.125 28V27ZM36.875 27V28C36.875 28.0331 36.8619 28.065 36.8381 28.0881C36.815 28.1119 36.7831 28.125 36.75 28.125H35.75C35.7169 28.125 35.685 28.1119 35.6619 28.0881C35.6381 28.065 35.625 28.0331 35.625 28V27C35.625 26.9669 35.6381 26.935 35.6619 26.9119C35.685 26.8881 35.7169 26.875 35.75 26.875H36.75C36.7831 26.875 36.815 26.8881 36.8381 26.9119C36.8619 26.935 36.875 26.9669 36.875 27Z" fill="#6C4BFF"/>
<path fill-rule="evenodd" clip-rule="evenodd" d="M32.1981 41.875H18.75C17.9213 41.875 17.1263 41.5456 16.54 40.96C15.9544 40.3738 15.625 39.5788 15.625 38.75V21.25C15.625 19.5244 17.0244 18.125 18.75 18.125H20.625V17.5C20.625 16.4644 21.4644 15.625 22.5 15.625C23.5356 15.625 24.375 16.4644 24.375 17.5V18.125H33.125V17.5C33.125 16.4644 33.9644 15.625 35 15.625C36.0356 15.625 36.875 16.4644 36.875 17.5V18.125H38.75C40.4756 18.125 41.875 19.5244 41.875 21.25V32.1981C43.4019 33.46 44.375 35.3669 44.375 37.5C44.375 41.2944 41.2944 44.375 37.5 44.375C35.3669 44.375 33.46 43.4019 32.1981 41.875ZM37.5 31.875C40.6044 31.875 43.125 34.3956 43.125 37.5C43.125 40.6044 40.6044 43.125 37.5 43.125C34.3956 43.125 31.875 40.6044 31.875 37.5C31.875 34.3956 34.3956 31.875 37.5 31.875ZM40.625 31.3756V24.375H16.875V38.75C16.875 39.2475 17.0725 39.7244 17.4244 40.0756C17.7756 40.4275 18.2525 40.625 18.75 40.625H31.3756C30.8956 39.6875 30.625 38.625 30.625 37.5C30.625 33.7056 33.7056 30.625 37.5 30.625C38.625 30.625 39.6875 30.8956 40.625 31.3756ZM36.875 19.375V20C36.875 21.0356 36.0356 21.875 35 21.875C33.9644 21.875 33.125 21.0356 33.125 20V19.375H24.375V20C24.375 21.0356 23.5356 21.875 22.5 21.875C21.4644 21.875 20.625 21.0356 20.625 20V19.375H18.75C17.7144 19.375 16.875 20.2144 16.875 21.25V23.125H40.625V21.25C40.625 20.2144 39.7856 19.375 38.75 19.375H36.875ZM35.625 17.5V20C35.625 20.345 35.345 20.625 35 20.625C34.655 20.625 34.375 20.345 34.375 20V17.5C34.375 17.155 34.655 16.875 35 16.875C35.345 16.875 35.625 17.155 35.625 17.5ZM23.125 17.5V20C23.125 20.345 22.845 20.625 22.5 20.625C22.155 20.625 21.875 20.345 21.875 20V17.5C21.875 17.155 22.155 16.875 22.5 16.875C22.845 16.875 23.125 17.155 23.125 17.5Z" fill="#6C4BFF"/>
</g>
<defs>
<clipPath id="clip0_984_397">
<rect width="30" height="30" fill="white" transform="translate(15 15)"/>
</clipPath>
</defs>
</svg>
